# xmcd
# 
# Track frame offsets:
#     150
#     31857
#     56446
#     82568
#     106123
#     132630
#     161977
#     200994
#     227306
#     250738
#     272560
#     298612
# 
# Disc length: 4370
# 
# Revision: 0
# Processed by: cddbd v1.5.2PL0 Copyright (c) Steve Scherf et al.
# Submitted via: BonkEnc v1.0.8
# 
DISCID=9d11100c
DTITLE=Misia - Love and Ballads
DYEAR=2004
DGENRE=Ballad
TTITLE0=Everything
TTITLE1=眠れぬ夜は君のせい
TTITLE2=忘れない日々
TTITLE3=キスして抱きしめて
TTITLE4=あの夏のままで
TTITLE5=It's Just Love
TTITLE6=The Glory Day
TTITLE7=あの日のように
TTITLE8=飛び方を忘れた小さな鳥
TTITLE9=時をとめて
TTITLE10=星の降る丘
TTITLE11=果てなく続くストーリー
EXTD=
EXTT0=
EXTT1=
EXTT2=
EXTT3=
EXTT4=
EXTT5=
EXTT6=
EXTT7=
EXTT8=
EXTT9=
EXTT10=
EXTT11=
PLAYORDER=
